<svg width="111" height="27" viewBox="0 0 111 27" fill="none" xmlns="http://www.w3.org/2000/svg">
<path fill-rule="evenodd" clip-rule="evenodd" d="M62.0119 27C63.1838 27 65.2381 26.4737 66.5895 24.078C69.1882 19.4812 69.8794 11.6562 69.8794 11.6562H63.2224L62.6432 16.3901H65.6995C65.0025 20.754 63.5063 22.1544 62.3865 22.1544C60.0195 22.1544 60.2685 17.8735 60.7917 13.7552C61.4385 8.60976 62.6606 4.86472 64.8017 4.86472C66.1474 4.86472 66.939 5.84405 66.7459 9.0117H69.9084C70.4818 3.20912 68.6129 0 65.0257 0C60.3438 0 58.5502 6.29702 57.6525 13.2512C56.7991 19.88 57.3532 27 62.0119 27ZM3.38832 0.328745H8.12039C12.1072 0.328745 12.9278 3.94937 12.4547 7.53172C12.1806 9.71367 11.4334 12.4283 9.44097 13.0887C11.2346 13.8287 11.6825 16.6264 11.3601 19.0571C10.9353 22.7192 9.23631 26.6716 5.15681 26.6716H0L3.38832 0.328745ZM5.52943 21.8547C7.22456 21.8547 7.92153 20.6202 8.19568 18.3968C8.46984 16.2563 8.27098 15.4748 6.75155 15.4748H4.60851L3.78604 21.8547H5.52943ZM6.82491 10.9897C8.34435 10.9897 9.01816 9.87636 9.26721 7.81882C9.51627 5.76128 9.36567 5.14562 7.97173 5.14562H5.95418L5.20701 10.9897H6.82491ZM47.3678 0.328745H51.9512C57.083 0.328745 56.8339 5.67835 56.4613 8.72478C56.0867 11.4841 55.0403 15.9278 51.6018 16.1766L54.6677 26.6716H50.8546L48.5629 15.8863L47.1439 26.6716H43.9795L47.3678 0.328745ZM50.482 12.5113C52.1752 12.5113 52.9725 10.7408 53.2216 8.60037C53.4707 6.45989 53.1965 5.09139 51.7524 5.09139H49.9337L48.9877 12.4985L50.482 12.5113ZM107.579 24.078C106.228 26.4737 104.172 27 103.002 27C98.3429 27 97.7888 19.88 98.6422 13.2512C99.538 6.29702 101.332 0 106.015 0C109.603 0 111.472 3.20912 110.898 9.0117H107.734C107.927 5.84405 107.137 4.86472 105.791 4.86472C103.648 4.86472 102.428 8.60976 101.781 13.7552C101.258 17.8735 101.009 22.1544 103.374 22.1544C104.496 22.1544 105.99 20.754 106.687 16.3901H103.623L104.203 11.6562H110.859C110.859 11.6562 110.176 19.4812 107.579 24.078ZM80.7702 0.328745H76.6347L68.8232 26.6716H72.2598L73.5534 21.9792H78.3801L78.4283 26.6716H81.6429L80.7702 0.328745ZM78.1059 5.39124L78.2796 17.7397H74.7427L78.1059 5.39124ZM86.4735 0.328745H90.1611L92.8524 17.7811L95.0939 0.328745H98.2564L94.87 26.6716H91.2828L88.4911 9.34363L86.2747 26.6716H83.062L86.4735 0.328745ZM44.6827 0.328745L43.9414 5.5986H15.6821L16.4235 0.328745H44.6827ZM14.1973 16.1349H42.4565L43.1978 10.8651H14.9386L14.1973 16.1349ZM12.7158 26.6714L13.4572 21.4047H41.7164L40.9731 26.6714H12.7158Z" fill="#FF6700"/>
</svg>
