<svg width="40" height="40" viewBox="0 0 40 40" fill="none" xmlns="http://www.w3.org/2000/svg">
<path d="M30.4129 10.2178C28.4418 9.32486 26.361 8.69135 24.2236 8.3335C23.9311 8.8509 23.6665 9.38324 23.4308 9.92829C21.1541 9.58879 18.8388 9.58879 16.562 9.92829C16.3262 9.3833 16.0616 8.85096 15.7692 8.3335C13.6304 8.69437 11.5483 9.32938 9.57524 10.2225C5.65831 15.9572 4.59649 21.5495 5.1274 27.0624C7.42125 28.7396 9.98873 30.0151 12.7182 30.8335C13.3328 30.0155 13.8767 29.1477 14.344 28.2393C13.4564 27.9112 12.5997 27.5065 11.7838 27.0298C11.9985 26.8756 12.2086 26.7169 12.4115 26.5628C14.7855 27.6675 17.3766 28.2404 20 28.2404C22.6234 28.2404 25.2144 27.6675 27.5884 26.5628C27.7937 26.7285 28.0037 26.8873 28.2161 27.0298C27.3986 27.5073 26.5404 27.9128 25.6512 28.2416C26.1179 29.1496 26.6618 30.0166 27.277 30.8335C30.0088 30.0183 32.5782 28.7435 34.8725 27.0648V27.0648C35.4954 20.6716 33.8083 15.1307 30.4129 10.2178ZM15.0165 23.672C13.537 23.672 12.3147 22.3434 12.3147 20.7089C12.3147 19.0744 13.4945 17.7342 15.0118 17.7342C16.529 17.7342 17.7418 19.0744 17.7159 20.7089C17.6899 22.3434 16.5243 23.672 15.0165 23.672ZM24.9834 23.672C23.5016 23.672 22.284 22.3434 22.284 20.7089C22.284 19.0744 23.4638 17.7342 24.9834 17.7342C26.503 17.7342 27.7064 19.0744 27.6804 20.7089C27.6545 22.3434 26.4912 23.672 24.9834 23.672Z" fill="white"/>
</svg>
