<svg width="166" height="49" viewBox="0 0 166 49" fill="none" xmlns="http://www.w3.org/2000/svg">
<path d="M39.5736 7.51869L40.3263 0H9.34684L0 41.4813H32.3867L31.67 49H62.6384L71.9852 7.51869H39.5736ZM12.3688 3.7704H36.1531L35.0213 15.0664H23.1824L23.556 11.3361H19.7605L18.0198 28.718H25.3409L25.7311 24.9476H22.1944L22.806 18.8382H34.6449L32.7548 37.7109H4.72116L12.3688 3.7704ZM59.6164 45.2296H35.8224L36.3399 39.7944L39.1945 11.2905H67.2641L64.772 22.3488H51.9784L52.352 18.6185H48.5565L46.8158 36.0005H54.137L54.5272 32.2301H50.9891L51.6007 26.1206H63.9224L59.6164 45.2296Z" fill="white"/>
<path fill-rule="evenodd" clip-rule="evenodd" d="M83.7001 11.7671V14.475H85.07V17.6734C85.07 17.8144 85.0216 17.9373 84.9247 18.0423C84.8278 18.1473 84.7088 18.1998 84.5691 18.1998H82.91C82.7689 18.1998 82.6513 18.1473 82.5544 18.0423C82.4576 17.9359 82.4091 17.8144 82.4091 17.6734V7.75213C82.4091 7.61121 82.4576 7.48825 82.5544 7.38324C82.6513 7.27824 82.7689 7.22574 82.91 7.22574H84.5691C84.7088 7.22574 84.8278 7.27824 84.9247 7.38324C85.0216 7.48963 85.07 7.61259 85.07 7.75213V9.03012H88.5735V7.42607C88.5735 5.11189 87.4845 3.9541 85.3066 3.9541H81.9871C79.8092 3.9541 78.7202 5.11189 78.7202 7.42607V18.0271C78.7202 20.3413 79.8092 21.4991 81.9871 21.4991H85.3066C87.4845 21.4991 88.5735 20.3413 88.5735 18.0271V11.7671H83.7001ZM99.5857 18.0271V7.42608C99.5857 5.11189 98.4967 3.95411 96.3187 3.95411H92.8152C90.6373 3.95411 89.5483 5.11189 89.5483 7.42608V18.0271C89.5483 20.3413 90.6373 21.4991 92.8152 21.4991H96.3187C98.4967 21.4991 99.5857 20.3413 99.5857 18.0271ZM95.8967 7.75214V17.6748C95.8967 17.8144 95.8483 17.9373 95.7514 18.0423C95.6546 18.1473 95.5356 18.1998 95.3958 18.1998H93.7368C93.5956 18.1998 93.478 18.1473 93.3812 18.0423C93.2843 17.9359 93.2359 17.8144 93.2359 17.6734V7.75214C93.2359 7.61122 93.2843 7.48825 93.3812 7.38325C93.478 7.27825 93.5956 7.22575 93.7368 7.22575H95.3958C95.5356 7.22575 95.6546 7.27825 95.7514 7.38325C95.8483 7.48963 95.8967 7.6126 95.8967 7.75214ZM110.663 7.42608V18.0271C110.663 20.3413 109.574 21.4991 107.396 21.4991H103.892C101.714 21.4991 100.625 20.3413 100.625 18.0271V7.42608C100.625 5.11189 101.714 3.95411 103.892 3.95411H107.396C109.574 3.95411 110.663 5.11189 110.663 7.42608ZM106.975 17.6748V7.75214C106.975 7.6126 106.927 7.48963 106.83 7.38325C106.733 7.27825 106.614 7.22575 106.474 7.22575H104.815C104.674 7.22575 104.557 7.27825 104.46 7.38325C104.363 7.48825 104.314 7.61122 104.314 7.75214V17.6734C104.314 17.8144 104.363 17.9359 104.46 18.0423C104.557 18.1473 104.674 18.1998 104.815 18.1998H106.474C106.614 18.1998 106.733 18.1473 106.83 18.0423C106.927 17.9373 106.975 17.8144 106.975 17.6748ZM121.74 7.6885C121.74 5.37431 120.651 4.21653 118.474 4.21653H111.703V21.2351H118.474C120.651 21.2351 121.74 20.0774 121.74 17.7632V7.6885ZM118.051 8.01594V17.4109C118.051 17.5518 118.003 17.6747 117.906 17.7797C117.809 17.8847 117.69 17.9372 117.551 17.9372H115.391V7.48955H117.551C117.69 7.48955 117.809 7.54205 117.906 7.64705C118.003 7.75344 118.051 7.8764 118.051 8.01594ZM128.096 14.475V11.7671H132.969V18.0271C132.969 20.3413 131.88 21.4991 129.702 21.4991H126.383C124.205 21.4991 123.116 20.3413 123.116 18.0271V7.42607C123.116 5.11189 124.205 3.9541 126.383 3.9541H129.702C131.88 3.9541 132.969 5.11189 132.969 7.42607V9.03012H129.466V7.75213C129.466 7.61259 129.417 7.48963 129.32 7.38324C129.223 7.27824 129.104 7.22574 128.965 7.22574H127.306C127.164 7.22574 127.047 7.27824 126.95 7.38324C126.853 7.48825 126.805 7.61121 126.805 7.75213V17.6734C126.805 17.8144 126.853 17.9359 126.95 18.0423C127.047 18.1473 127.164 18.1998 127.306 18.1998H128.965C129.104 18.1998 129.223 18.1473 129.32 18.0423C129.417 17.9373 129.466 17.8144 129.466 17.6734V14.475H128.096ZM161.127 11.7671V14.475H162.497V17.6734C162.497 17.8144 162.448 17.9373 162.351 18.0423C162.255 18.1473 162.136 18.1998 161.996 18.1998H160.337C160.196 18.1998 160.078 18.1473 159.981 18.0423C159.884 17.9359 159.836 17.8144 159.836 17.6734V7.75214C159.836 7.61122 159.884 7.48825 159.981 7.38325C160.078 7.27825 160.196 7.22575 160.337 7.22575H161.996C162.136 7.22575 162.255 7.27825 162.351 7.38325C162.448 7.48963 162.497 7.6126 162.497 7.75214V9.03012H166V7.42608C166 5.11189 164.911 3.95411 162.733 3.95411H159.414C157.236 3.95411 156.147 5.11189 156.147 7.42608V18.0271C156.147 20.3413 157.236 21.4991 159.414 21.4991H162.733C164.911 21.4991 166 20.3413 166 18.0271V11.7671H161.127ZM140.715 3.95411C142.893 3.95411 143.982 5.11189 143.982 7.42608V21.2366H140.293V15.5278H137.632V21.2366H133.943V7.42608C133.943 5.11189 135.032 3.95411 137.21 3.95411H140.715ZM137.632 12.6872H140.293V7.75214C140.293 7.6126 140.245 7.48963 140.148 7.38325C140.051 7.27825 139.932 7.22575 139.792 7.22575H138.133C137.992 7.22575 137.874 7.27825 137.778 7.38325C137.681 7.48825 137.632 7.61122 137.632 7.75214V12.6872ZM151.286 21.2366H154.974V7.42608C154.974 5.11189 153.885 3.95411 151.707 3.95411H148.44C146.262 3.95411 145.173 5.11189 145.173 7.42608V21.2366H148.862V8.03951C148.862 7.89859 148.91 7.77563 149.007 7.67063C149.104 7.56562 149.222 7.51312 149.363 7.51312H150.785C150.925 7.51312 151.044 7.56562 151.141 7.67063C151.238 7.77701 151.286 7.89997 151.286 8.03951V21.2366ZM82.4091 40.8029H86.4398V44.2169H78.7202V27.1955H82.4091V40.8029ZM97.1637 30.4048C97.1637 28.0906 96.0747 26.9328 93.8968 26.9328H90.3919C88.214 26.9328 87.125 28.0906 87.125 30.4048V44.2153H90.8139V38.5065H93.4748V44.2153H97.1637V30.4048ZM93.4748 35.6659H90.8139V30.7308C90.8139 30.5899 90.8623 30.467 90.9592 30.362C91.0561 30.257 91.1737 30.2045 91.3148 30.2045H92.9739C93.1136 30.2045 93.2326 30.257 93.3295 30.362C93.4263 30.4683 93.4748 30.5913 93.4748 30.7308V35.6659ZM106.553 34.9035C107.694 35.3069 108.266 36.2367 108.266 37.6915V40.7435C108.266 43.0577 107.177 44.2155 104.999 44.2155H98.2285V27.1955H104.789C106.967 27.1955 108.055 28.3533 108.055 30.6675V32.219C108.055 33.6241 107.555 34.518 106.553 34.9035ZM103.866 30.4685H101.916V34.2458H103.866C104.007 34.2458 104.124 34.1933 104.221 34.0883C104.318 33.9833 104.367 33.8603 104.367 33.7194V30.9949C104.367 30.8554 104.318 30.7324 104.221 30.626C104.124 30.521 104.007 30.4685 103.866 30.4685ZM104.577 40.3912V37.3503C104.577 37.2107 104.528 37.0878 104.432 36.9814C104.335 36.8764 104.216 36.8239 104.076 36.8239H101.916V40.9162H104.076C104.216 40.9162 104.335 40.8637 104.432 40.7587C104.528 40.6537 104.577 40.5307 104.577 40.3912ZM115.076 31.6676H118.578V30.4048C118.578 28.0906 117.489 26.9328 115.311 26.9328H112.387C110.209 26.9328 109.12 28.0906 109.12 30.4048V33.798C109.12 36.1122 110.209 37.27 112.387 37.27H114.759C114.898 37.27 115.017 37.3225 115.114 37.4275C115.211 37.5339 115.26 37.6568 115.26 37.7964V40.8276C115.26 40.9685 115.211 41.0915 115.114 41.1965C115.017 41.3015 114.9 41.354 114.759 41.354H113.126C112.985 41.354 112.867 41.3015 112.77 41.1965C112.673 41.0901 112.625 40.9685 112.625 40.8276V39.2429H109.122V41.0058C109.122 43.32 110.21 44.4778 112.388 44.4778H115.498C117.675 44.4778 118.764 43.32 118.764 41.0058V37.3501C118.764 35.0705 117.675 33.9127 115.498 33.8781H113.126C112.985 33.8781 112.867 33.8256 112.77 33.7206C112.673 33.6143 112.625 33.4927 112.625 33.3518V30.6355C112.625 30.4946 112.673 30.3716 112.77 30.2666C112.867 30.1616 112.985 30.1091 113.126 30.1091H114.575C114.714 30.1091 114.833 30.1616 114.93 30.2666C115.027 30.373 115.076 30.496 115.076 30.6355V31.6676Z" fill="white"/>
</svg>
