<svg width="40" height="40" viewBox="0 0 40 40" fill="none" xmlns="http://www.w3.org/2000/svg">
<path d="M20 5C11.717 5 5 11.717 5 20C5 28.283 11.717 35 20 35C28.283 35 35 28.283 35 20C35 11.717 28.286 5 20 5ZM12.401 20.504L12.464 20.402L16.367 14.297C16.424 14.21 16.559 14.219 16.601 14.315C17.252 15.776 17.816 17.594 17.552 18.725C17.441 19.19 17.132 19.82 16.784 20.402C16.739 20.486 16.691 20.57 16.637 20.651C16.613 20.687 16.571 20.708 16.526 20.708H12.515C12.407 20.708 12.344 20.591 12.401 20.504ZM29.792 22.604C29.792 22.661 29.759 22.709 29.711 22.73C29.408 22.859 28.373 23.336 27.944 23.933C26.846 25.46 26.009 27.644 24.134 27.644H16.316C13.544 27.644 11.3 25.391 11.3 22.61V22.52C11.3 22.448 11.36 22.388 11.435 22.388H15.791C15.878 22.388 15.941 22.466 15.935 22.553C15.902 22.835 15.956 23.126 16.091 23.39C16.349 23.915 16.886 24.242 17.465 24.242H19.622V22.559H17.489C17.381 22.559 17.315 22.433 17.378 22.343C17.402 22.307 17.426 22.271 17.456 22.229C17.657 21.941 17.945 21.497 18.233 20.99C18.428 20.648 18.617 20.282 18.77 19.916C18.8 19.85 18.824 19.781 18.851 19.715C18.893 19.598 18.935 19.487 18.965 19.379C18.995 19.286 19.022 19.19 19.046 19.1C19.118 18.788 19.148 18.458 19.148 18.116C19.148 17.981 19.142 17.84 19.13 17.708C19.124 17.561 19.106 17.414 19.088 17.267C19.076 17.138 19.052 17.009 19.028 16.877C18.995 16.682 18.953 16.487 18.905 16.292L18.887 16.217C18.851 16.082 18.818 15.956 18.776 15.821C18.653 15.401 18.515 14.99 18.365 14.606C18.311 14.453 18.251 14.306 18.188 14.162C18.098 13.94 18.005 13.739 17.921 13.55C17.876 13.463 17.84 13.385 17.804 13.304C17.762 13.214 17.72 13.124 17.675 13.037C17.645 12.971 17.609 12.908 17.585 12.848L17.321 12.362C17.285 12.296 17.345 12.215 17.417 12.236L19.067 12.683H19.073C19.076 12.683 19.076 12.683 19.079 12.683L19.295 12.746L19.535 12.812L19.622 12.836V11.858C19.622 11.384 20 11 20.471 11C20.705 11 20.918 11.096 21.068 11.252C21.221 11.408 21.317 11.621 21.317 11.858V13.313L21.494 13.361C21.506 13.367 21.521 13.373 21.533 13.382C21.575 13.412 21.638 13.46 21.716 13.52C21.779 13.568 21.845 13.628 21.923 13.691C22.082 13.82 22.274 13.985 22.481 14.174C22.535 14.222 22.589 14.27 22.64 14.321C22.907 14.57 23.207 14.861 23.495 15.185C23.576 15.278 23.654 15.368 23.735 15.467C23.813 15.566 23.9 15.662 23.972 15.758C24.071 15.887 24.173 16.022 24.266 16.163C24.308 16.229 24.359 16.298 24.398 16.364C24.518 16.541 24.62 16.724 24.719 16.907C24.761 16.991 24.803 17.084 24.839 17.174C24.95 17.42 25.037 17.669 25.091 17.921C25.109 17.975 25.121 18.032 25.127 18.086V18.098C25.145 18.17 25.151 18.248 25.157 18.329C25.181 18.584 25.169 18.842 25.115 19.1C25.091 19.208 25.061 19.31 25.025 19.421C24.986 19.526 24.95 19.634 24.902 19.739C24.809 19.952 24.701 20.168 24.572 20.366C24.53 20.441 24.479 20.519 24.431 20.594C24.377 20.672 24.32 20.747 24.272 20.819C24.203 20.912 24.131 21.008 24.056 21.095C23.99 21.185 23.924 21.275 23.849 21.356C23.747 21.479 23.648 21.593 23.543 21.704C23.483 21.776 23.417 21.851 23.348 21.917C23.282 21.992 23.213 22.058 23.153 22.118C23.048 22.223 22.964 22.301 22.892 22.37L22.721 22.523C22.697 22.547 22.664 22.559 22.631 22.559H21.317V24.242H22.97C23.339 24.242 23.69 24.113 23.975 23.87C24.071 23.786 24.494 23.42 24.995 22.868C25.013 22.847 25.034 22.835 25.058 22.829L29.621 21.509C29.708 21.485 29.792 21.548 29.792 21.638V22.604Z" fill="white"/>
</svg>
