<svg width="228" height="101" viewBox="0 0 228 101" fill="none" xmlns="http://www.w3.org/2000/svg">
<path d="M19.7019 42.384C15.9579 42.384 13.2539 41.456 11.5899 39.6C9.92594 37.744 9.09394 34.752 9.09394 30.624V26.592H17.2059V31.728C17.2059 33.776 17.8619 34.8 19.1739 34.8C19.9099 34.8 20.4219 34.592 20.7099 34.176C20.9979 33.728 21.1419 32.992 21.1419 31.968C21.1419 30.624 20.9819 29.52 20.6619 28.656C20.3419 27.76 19.9259 27.024 19.4139 26.448C18.9339 25.84 18.0539 24.912 16.7739 23.664L13.2219 20.112C10.4699 17.424 9.09394 14.448 9.09394 11.184C9.09394 7.664 9.89394 4.992 11.4939 3.168C13.1259 1.312 15.4939 0.383998 18.5979 0.383998C22.3099 0.383998 24.9819 1.376 26.6139 3.36C28.2459 5.312 29.0619 8.384 29.0619 12.576H20.6619L20.6139 9.744C20.6139 9.2 20.4539 8.768 20.1339 8.448C19.8459 8.128 19.4299 7.968 18.8859 7.968C18.2459 7.968 17.7659 8.144 17.4459 8.496C17.1259 8.848 16.9659 9.328 16.9659 9.936C16.9659 11.28 17.7339 12.672 19.2699 14.112L24.0699 18.72C25.1899 19.808 26.1179 20.848 26.8539 21.84C27.5899 22.8 28.1819 23.952 28.6299 25.296C29.0779 26.608 29.3019 28.176 29.3019 30C29.3019 34.064 28.5499 37.152 27.0459 39.264C25.5739 41.344 23.1259 42.384 19.7019 42.384ZM38.2749 42.384C35.5549 42.384 33.6829 41.488 32.6589 39.696C31.6669 37.872 31.1709 35.28 31.1709 31.92C31.1709 29.168 31.5229 27.056 32.2269 25.584C32.9629 24.112 33.9709 23.04 35.2509 22.368C36.5309 21.664 38.4829 20.896 41.1069 20.064L43.4109 19.296V19.2V15.696C43.4109 14.768 43.2189 14.064 42.8349 13.584C42.4829 13.072 42.0509 12.816 41.5389 12.816C41.0909 12.816 40.6909 13.024 40.3389 13.44C40.0189 13.856 39.8589 14.416 39.8589 15.12V17.232H31.6989V16.08C31.6989 12.624 32.4989 10.16 34.0989 8.688C35.7309 7.216 38.3709 6.48 42.0189 6.48C44.9309 6.48 47.2989 7.248 49.1229 8.784C50.9469 10.288 51.8589 12.432 51.8589 15.216V42H43.5069V37.824C43.0909 39.264 42.4189 40.384 41.4909 41.184C40.5949 41.984 39.5229 42.384 38.2749 42.384ZM41.5869 35.856C42.2269 35.856 42.6749 35.6 42.9309 35.088C43.2189 34.544 43.3629 33.888 43.3629 33.12V23.328C42.1149 23.808 41.1869 24.416 40.5789 25.152C40.0029 25.888 39.7149 26.912 39.7149 28.224V32.736C39.7149 34.816 40.3389 35.856 41.5869 35.856ZM54.4221 42.528H58.4541C59.0301 42.528 59.3181 42.288 59.3181 41.808C59.3181 41.584 59.3021 41.408 59.2701 41.28L53.7981 6.864H61.8141L63.3981 24L64.1661 32.736L65.0781 24L66.9501 6.864H75.0141L68.4861 43.824C68.2621 45.2 67.7981 46.208 67.0941 46.848C66.4221 47.52 65.3501 47.856 63.8781 47.856H54.4221V42.528ZM8.45925 100.384C6.25125 100.384 4.73125 99.92 3.89925 98.992C3.06725 98.064 2.65125 96.576 2.65125 94.528V72.592H0.29925V66.208H2.65125V58.768H10.8113V66.208H13.2113V72.592H10.8113V92.32C10.8113 92.928 10.8593 93.376 10.9553 93.664C11.0513 93.952 11.3073 94.096 11.7233 94.096C12.0433 94.096 12.3472 94.08 12.6353 94.048C12.9233 94.016 13.1153 94 13.2113 94V99.76C12.7313 99.888 12.0273 100.016 11.0993 100.144C10.2033 100.304 9.32325 100.384 8.45925 100.384ZM26.0603 100.384C19.0523 100.384 15.5483 96.752 15.5483 89.488V75.376C15.5483 72.048 16.4763 69.408 18.3323 67.456C20.2203 65.472 22.7963 64.48 26.0603 64.48C29.3243 64.48 31.8843 65.472 33.7403 67.456C35.6283 69.408 36.5723 72.048 36.5723 75.376V89.488C36.5723 96.752 33.0683 100.384 26.0603 100.384ZM26.0603 93.904C26.7323 93.904 27.2283 93.664 27.5483 93.184C27.8683 92.704 28.0283 92.048 28.0283 91.216V74.032C28.0283 71.984 27.3723 70.96 26.0603 70.96C24.7483 70.96 24.0923 71.984 24.0923 74.032V91.216C24.0923 92.048 24.2523 92.704 24.5723 93.184C24.8923 93.664 25.3883 93.904 26.0603 93.904ZM51.0896 58.768H62.2736C65.2816 58.768 67.4576 59.504 68.8016 60.976C70.1776 62.448 70.8656 64.848 70.8656 68.176V70C70.8656 73.936 69.4576 76.288 66.6416 77.056C68.3696 77.504 69.5856 78.544 70.2896 80.176C70.9936 81.808 71.3456 83.968 71.3456 86.656C71.3456 91.04 70.6896 94.368 69.3776 96.64C68.0656 98.88 65.6976 100 62.2736 100H51.0896V58.768ZM60.8336 74.272C61.5376 74.272 62.0176 74.016 62.2736 73.504C62.5296 72.96 62.6576 72.208 62.6576 71.248V67.12C62.6576 65.776 62.0656 65.104 60.8816 65.104H59.1536V74.272H60.8336ZM59.9696 92.752C62.1136 92.752 63.1856 91.728 63.1856 89.68V84.544C63.1856 83.296 62.9936 82.352 62.6096 81.712C62.2576 81.072 61.6176 80.752 60.6896 80.752H59.1536V92.704L59.9696 92.752ZM74.0584 100V58.768H90.5704V66.736H82.4584V74.752H90.2344V82.528H82.4584V91.984H91.0984V100H74.0584ZM93.8396 100V58.768H110.352V66.736H102.24V74.752H110.016V82.528H102.24V91.984H110.88V100H93.8396ZM113.621 58.768H126.293C128.309 58.768 129.861 59.232 130.949 60.16C132.069 61.056 132.821 62.336 133.205 64C133.589 65.632 133.781 67.728 133.781 70.288C133.781 72.624 133.477 74.448 132.869 75.76C132.261 77.072 131.205 77.984 129.701 78.496C130.949 78.752 131.845 79.376 132.389 80.368C132.965 81.36 133.253 82.704 133.253 84.4L133.157 100H125.093V83.872C125.093 82.72 124.869 81.984 124.421 81.664C123.973 81.344 123.157 81.184 121.973 81.184V100H113.621V58.768ZM123.989 74.032C125.141 74.032 125.717 72.784 125.717 70.288C125.717 69.2 125.669 68.384 125.573 67.84C125.477 67.296 125.301 66.928 125.045 66.736C124.789 66.512 124.421 66.4 123.941 66.4H122.021V74.032H123.989ZM144.992 100.384C142.016 100.384 139.792 99.344 138.32 97.264C136.88 95.152 136.16 91.968 136.16 87.712V69.952C136.16 66.144 137.008 63.264 138.704 61.312C140.4 59.36 142.928 58.384 146.288 58.384C149.008 58.384 151.12 58.928 152.624 60.016C154.128 61.104 155.168 62.688 155.744 64.768C156.32 66.848 156.608 69.52 156.608 72.784H148.544V69.088C148.544 68.096 148.4 67.328 148.112 66.784C147.856 66.24 147.376 65.968 146.672 65.968C145.104 65.968 144.32 66.992 144.32 69.04V89.008C144.32 90.256 144.48 91.2 144.8 91.84C145.12 92.48 145.68 92.8 146.48 92.8C147.28 92.8 147.84 92.48 148.16 91.84C148.48 91.2 148.64 90.256 148.64 89.008V83.104H146.432V76H156.512V100H153.2L151.808 96.544C150.336 99.104 148.064 100.384 144.992 100.384ZM158.689 100L162.673 58.768H176.641L180.577 100H172.753L172.177 93.328H167.185L166.705 100H158.689ZM167.809 86.752H171.553L169.729 65.776H169.345L167.809 86.752ZM183.09 100V58.768H191.586L195.378 78.496V58.768H203.346V100H195.282L191.154 79.36V100H183.09ZM215.492 100.384C212.516 100.384 210.292 99.344 208.82 97.264C207.38 95.152 206.66 91.968 206.66 87.712V69.952C206.66 66.144 207.508 63.264 209.204 61.312C210.9 59.36 213.428 58.384 216.788 58.384C219.508 58.384 221.62 58.928 223.124 60.016C224.628 61.104 225.668 62.688 226.244 64.768C226.82 66.848 227.108 69.52 227.108 72.784H219.044V69.088C219.044 68.096 218.9 67.328 218.612 66.784C218.356 66.24 217.876 65.968 217.172 65.968C215.604 65.968 214.82 66.992 214.82 69.04V89.008C214.82 90.256 214.98 91.2 215.3 91.84C215.62 92.48 216.18 92.8 216.98 92.8C217.78 92.8 218.34 92.48 218.66 91.84C218.98 91.2 219.14 90.256 219.14 89.008V83.104H216.932V76H227.012V100H223.7L222.308 96.544C220.836 99.104 218.564 100.384 215.492 100.384Z" fill="white"/>
<path d="M98.2131 42.384C95.2051 42.384 92.7891 41.44 90.9651 39.552C89.1731 37.664 88.2771 35.072 88.2771 31.776V12.768C88.2771 8.672 89.0931 5.584 90.7251 3.504C92.3571 1.424 94.9171 0.383998 98.4051 0.383998C101.445 0.383998 103.893 1.216 105.749 2.88C107.605 4.544 108.533 6.944 108.533 10.08V17.184H100.325V11.088C100.325 9.904 100.181 9.088 99.8931 8.64C99.6051 8.192 99.1091 7.968 98.4051 7.968C97.6691 7.968 97.1571 8.224 96.8691 8.736C96.6131 9.248 96.4851 10 96.4851 10.992V31.68C96.4851 32.768 96.6451 33.568 96.9651 34.08C97.2851 34.56 97.7651 34.8 98.4051 34.8C99.6851 34.8 100.325 33.76 100.325 31.68V24.24H108.629V32.016C108.629 38.928 105.157 42.384 98.2131 42.384ZM111.203 0.527999H119.843V10.32C120.739 7.76 122.451 6.48 124.979 6.48C127.347 6.48 129.139 7.232 130.355 8.736C131.571 10.24 132.179 12.304 132.179 14.928V42H123.779V15.456C123.779 14.688 123.603 14.064 123.251 13.584C122.899 13.104 122.387 12.864 121.715 12.864C121.139 12.864 120.675 13.12 120.323 13.632C120.003 14.112 119.843 14.704 119.843 15.408V42H111.203V0.527999ZM145.278 42.384C141.662 42.384 139.07 41.392 137.502 39.408C135.934 37.424 135.15 34.464 135.15 30.528V16.416C135.15 13.184 136.078 10.72 137.934 9.024C139.79 7.328 142.382 6.48 145.71 6.48C152.462 6.48 155.838 9.792 155.838 16.416V18.96C155.838 21.52 155.806 23.6 155.742 25.2H143.55V32.016C143.55 33.232 143.678 34.192 143.934 34.896C144.19 35.568 144.734 35.904 145.566 35.904C146.206 35.904 146.654 35.712 146.91 35.328C147.198 34.944 147.358 34.512 147.39 34.032C147.454 33.52 147.486 32.784 147.486 31.824V28.416H155.838V30.432C155.838 34.528 155.038 37.552 153.438 39.504C151.87 41.424 149.15 42.384 145.278 42.384ZM147.486 21.024V16.512C147.486 13.984 146.862 12.72 145.614 12.72C144.206 12.72 143.502 13.984 143.502 16.512V21.024H147.486ZM168.715 42.384C165.099 42.384 162.507 41.392 160.939 39.408C159.371 37.424 158.587 34.464 158.587 30.528V16.416C158.587 13.184 159.515 10.72 161.371 9.024C163.227 7.328 165.819 6.48 169.147 6.48C175.899 6.48 179.275 9.792 179.275 16.416V18.96C179.275 21.52 179.243 23.6 179.179 25.2H166.987V32.016C166.987 33.232 167.115 34.192 167.371 34.896C167.627 35.568 168.171 35.904 169.003 35.904C169.643 35.904 170.091 35.712 170.347 35.328C170.635 34.944 170.795 34.512 170.827 34.032C170.891 33.52 170.923 32.784 170.923 31.824V28.416H179.275V30.432C179.275 34.528 178.475 37.552 176.875 39.504C175.307 41.424 172.587 42.384 168.715 42.384ZM170.923 21.024V16.512C170.923 13.984 170.299 12.72 169.051 12.72C167.643 12.72 166.939 13.984 166.939 16.512V21.024H170.923ZM182.313 6.864H190.713V10.752C191.129 9.376 191.849 8.32 192.873 7.584C193.929 6.816 195.225 6.432 196.761 6.432V13.44C195.577 13.44 194.265 13.616 192.825 13.968C191.417 14.288 190.713 14.672 190.713 15.12V42H182.313V6.864ZM208.461 42.384C201.517 42.384 198.045 38.864 198.045 31.824L198.093 29.04H206.493L206.541 33.168C206.541 34 206.701 34.64 207.021 35.088C207.341 35.504 207.869 35.712 208.605 35.712C209.725 35.712 210.285 34.8 210.285 32.976C210.285 31.632 210.013 30.576 209.469 29.808C208.957 29.04 208.125 28.224 206.973 27.36L202.509 23.904C200.973 22.72 199.869 21.504 199.197 20.256C198.525 18.976 198.189 17.184 198.189 14.88C198.189 13.088 198.653 11.568 199.581 10.32C200.541 9.04 201.805 8.08 203.373 7.44C204.941 6.8 206.685 6.48 208.605 6.48C215.421 6.48 218.829 9.872 218.829 16.656V17.328H210.141V15.984C210.141 15.152 209.997 14.448 209.709 13.872C209.453 13.264 209.005 12.96 208.365 12.96C207.789 12.96 207.341 13.136 207.021 13.488C206.733 13.808 206.589 14.256 206.589 14.832C206.589 16.112 207.085 17.104 208.077 17.808L213.261 21.6C215.117 22.976 216.541 24.48 217.533 26.112C218.525 27.712 219.021 29.744 219.021 32.208C219.021 35.472 218.093 37.984 216.237 39.744C214.381 41.504 211.789 42.384 208.461 42.384Z" fill="#FF6700"/>
</svg>
