<svg width="844" height="90" viewBox="0 0 844 90" fill="none" xmlns="http://www.w3.org/2000/svg">
<path d="M20.0154 79.72C12.9954 79.72 7.92535 77.98 4.80535 74.5C1.68535 71.02 0.125352 65.41 0.125352 57.67V50.11H15.3354V59.74C15.3354 63.58 16.5654 65.5 19.0254 65.5C20.4054 65.5 21.3654 65.11 21.9054 64.33C22.4454 63.49 22.7154 62.11 22.7154 60.19C22.7154 57.67 22.4154 55.6 21.8154 53.98C21.2154 52.3 20.4354 50.92 19.4754 49.84C18.5754 48.7 16.9254 46.96 14.5254 44.62L7.86535 37.96C2.70535 32.92 0.125352 27.34 0.125352 21.22C0.125352 14.62 1.62535 9.61 4.62535 6.19C7.68535 2.71 12.1254 0.969996 17.9454 0.969996C24.9054 0.969996 29.9154 2.83 32.9754 6.54999C36.0354 10.21 37.5654 15.97 37.5654 23.83H21.8154L21.7254 18.52C21.7254 17.5 21.4254 16.69 20.8254 16.09C20.2854 15.49 19.5054 15.19 18.4854 15.19C17.2854 15.19 16.3854 15.52 15.7854 16.18C15.1854 16.84 14.8854 17.74 14.8854 18.88C14.8854 21.4 16.3254 24.01 19.2054 26.71L28.2054 35.35C30.3054 37.39 32.0454 39.34 33.4254 41.2C34.8054 43 35.9154 45.16 36.7554 47.68C37.5954 50.14 38.0154 53.08 38.0154 56.5C38.0154 64.12 36.6054 69.91 33.7854 73.87C31.0254 77.77 26.4354 79.72 20.0154 79.72ZM54.8397 79.72C49.7397 79.72 46.2297 78.04 44.3097 74.68C42.4497 71.26 41.5197 66.4 41.5197 60.1C41.5197 54.94 42.1797 50.98 43.4997 48.22C44.8797 45.46 46.7697 43.45 49.1697 42.19C51.5697 40.87 55.2297 39.43 60.1497 37.87L64.4697 36.43V36.25V29.68C64.4697 27.94 64.1097 26.62 63.3897 25.72C62.7297 24.76 61.9197 24.28 60.9597 24.28C60.1197 24.28 59.3697 24.67 58.7097 25.45C58.1097 26.23 57.8097 27.28 57.8097 28.6V32.56H42.5097V30.4C42.5097 23.92 44.0097 19.3 47.0097 16.54C50.0697 13.78 55.0197 12.4 61.8597 12.4C67.3197 12.4 71.7597 13.84 75.1797 16.72C78.5997 19.54 80.3097 23.56 80.3097 28.78V79H64.6497V71.17C63.8697 73.87 62.6097 75.97 60.8697 77.47C59.1897 78.97 57.1797 79.72 54.8397 79.72ZM61.0497 67.48C62.2497 67.48 63.0897 67 63.5697 66.04C64.1097 65.02 64.3797 63.79 64.3797 62.35V43.99C62.0397 44.89 60.2997 46.03 59.1597 47.41C58.0797 48.79 57.5397 50.71 57.5397 53.17V61.63C57.5397 65.53 58.7097 67.48 61.0497 67.48ZM85.1156 79.99H92.6756C93.7556 79.99 94.2956 79.54 94.2956 78.64C94.2956 78.22 94.2656 77.89 94.2056 77.65L83.9456 13.12H98.9756L101.946 45.25L103.386 61.63L105.096 45.25L108.606 13.12H123.726L111.486 82.42C111.066 85 110.196 86.89 108.876 88.09C107.616 89.35 105.606 89.98 102.846 89.98H85.1156V79.99ZM433.247 79.72C429.107 79.72 426.257 78.85 424.697 77.11C423.137 75.37 422.357 72.58 422.357 68.74V27.61H417.947V15.64H422.357V1.69H437.657V15.64H442.157V27.61H437.657V64.6C437.657 65.74 437.747 66.58 437.927 67.12C438.107 67.66 438.587 67.93 439.367 67.93C439.967 67.93 440.537 67.9 441.077 67.84C441.617 67.78 441.977 67.75 442.157 67.75V78.55C441.257 78.79 439.937 79.03 438.197 79.27C436.517 79.57 434.867 79.72 433.247 79.72ZM466.249 79.72C453.109 79.72 446.539 72.91 446.539 59.29V32.83C446.539 26.59 448.279 21.64 451.759 17.98C455.299 14.26 460.129 12.4 466.249 12.4C472.369 12.4 477.169 14.26 480.649 17.98C484.189 21.64 485.959 26.59 485.959 32.83V59.29C485.959 72.91 479.389 79.72 466.249 79.72ZM466.249 67.57C467.509 67.57 468.439 67.12 469.039 66.22C469.639 65.32 469.939 64.09 469.939 62.53V30.31C469.939 26.47 468.709 24.55 466.249 24.55C463.789 24.55 462.559 26.47 462.559 30.31V62.53C462.559 64.09 462.859 65.32 463.459 66.22C464.059 67.12 464.989 67.57 466.249 67.57ZM513.179 1.69H534.149C539.789 1.69 543.869 3.07 546.389 5.83C548.969 8.59 550.259 13.09 550.259 19.33V22.75C550.259 30.13 547.619 34.54 542.339 35.98C545.579 36.82 547.859 38.77 549.179 41.83C550.499 44.89 551.159 48.94 551.159 53.98C551.159 62.2 549.929 68.44 547.469 72.7C545.009 76.9 540.569 79 534.149 79H513.179V1.69ZM531.449 30.76C532.769 30.76 533.669 30.28 534.149 29.32C534.629 28.3 534.869 26.89 534.869 25.09V17.35C534.869 14.83 533.759 13.57 531.539 13.57H528.299V30.76H531.449ZM529.829 65.41C533.849 65.41 535.859 63.49 535.859 59.65V50.02C535.859 47.68 535.499 45.91 534.779 44.71C534.119 43.51 532.919 42.91 531.179 42.91H528.299V65.32L529.829 65.41ZM556.245 79V1.69H587.205V16.63H571.995V31.66H586.575V46.24H571.995V63.97H588.195V79H556.245ZM593.335 79V1.69H624.295V16.63H609.085V31.66H623.665V46.24H609.085V63.97H625.285V79H593.335ZM630.425 1.69H654.185C657.965 1.69 660.875 2.56 662.915 4.3C665.015 5.98 666.425 8.38 667.145 11.5C667.865 14.56 668.225 18.49 668.225 23.29C668.225 27.67 667.655 31.09 666.515 33.55C665.375 36.01 663.395 37.72 660.575 38.68C662.915 39.16 664.595 40.33 665.615 42.19C666.695 44.05 667.235 46.57 667.235 49.75L667.055 79H651.935V48.76C651.935 46.6 651.515 45.22 650.675 44.62C649.835 44.02 648.305 43.72 646.085 43.72V79H630.425V1.69ZM649.865 30.31C652.025 30.31 653.105 27.97 653.105 23.29C653.105 21.25 653.015 19.72 652.835 18.7C652.655 17.68 652.325 16.99 651.845 16.63C651.365 16.21 650.675 16 649.775 16H646.175V30.31H649.865ZM689.246 79.72C683.666 79.72 679.496 77.77 676.736 73.87C674.036 69.91 672.686 63.94 672.686 55.96V22.66C672.686 15.52 674.276 10.12 677.456 6.46C680.636 2.8 685.376 0.969996 691.676 0.969996C696.776 0.969996 700.736 1.99 703.556 4.02999C706.376 6.07 708.326 9.04 709.406 12.94C710.486 16.84 711.026 21.85 711.026 27.97H695.906V21.04C695.906 19.18 695.636 17.74 695.096 16.72C694.616 15.7 693.716 15.19 692.396 15.19C689.456 15.19 687.986 17.11 687.986 20.95V58.39C687.986 60.73 688.286 62.5 688.886 63.7C689.486 64.9 690.536 65.5 692.036 65.5C693.536 65.5 694.586 64.9 695.186 63.7C695.786 62.5 696.086 60.73 696.086 58.39V47.32H691.946V34H710.846V79H704.636L702.026 72.52C699.266 77.32 695.006 79.72 689.246 79.72ZM714.927 79L722.397 1.69H748.587L755.967 79H741.297L740.217 66.49H730.857L729.957 79H714.927ZM732.027 54.16H739.047L735.627 14.83H734.907L732.027 54.16ZM760.679 79V1.69H776.609L783.719 38.68V1.69H798.659V79H783.539L775.799 40.3V79H760.679ZM821.433 79.72C815.853 79.72 811.683 77.77 808.923 73.87C806.223 69.91 804.873 63.94 804.873 55.96V22.66C804.873 15.52 806.463 10.12 809.643 6.46C812.823 2.8 817.563 0.969996 823.863 0.969996C828.963 0.969996 832.923 1.99 835.743 4.02999C838.563 6.07 840.513 9.04 841.593 12.94C842.673 16.84 843.213 21.85 843.213 27.97H828.093V21.04C828.093 19.18 827.823 17.74 827.283 16.72C826.803 15.7 825.903 15.19 824.583 15.19C821.643 15.19 820.173 17.11 820.173 20.95V58.39C820.173 60.73 820.473 62.5 821.073 63.7C821.673 64.9 822.723 65.5 824.223 65.5C825.723 65.5 826.773 64.9 827.373 63.7C827.973 62.5 828.273 60.73 828.273 58.39V47.32H824.133V34H843.033V79H836.823L834.213 72.52C831.453 77.32 827.193 79.72 821.433 79.72Z" fill="white"/>
<path d="M167.224 79.72C161.584 79.72 157.054 77.95 153.634 74.41C150.274 70.87 148.594 66.01 148.594 59.83V24.19C148.594 16.51 150.124 10.72 153.184 6.82C156.244 2.92 161.044 0.969996 167.584 0.969996C173.284 0.969996 177.874 2.53 181.354 5.64999C184.834 8.77 186.574 13.27 186.574 19.15V32.47H171.184V21.04C171.184 18.82 170.914 17.29 170.374 16.45C169.834 15.61 168.904 15.19 167.584 15.19C166.204 15.19 165.244 15.67 164.704 16.63C164.224 17.59 163.984 19 163.984 20.86V59.65C163.984 61.69 164.284 63.19 164.884 64.15C165.484 65.05 166.384 65.5 167.584 65.5C169.984 65.5 171.184 63.55 171.184 59.65V45.7H186.754V60.28C186.754 73.24 180.244 79.72 167.224 79.72ZM191.581 1.24H207.781V19.6C209.461 14.8 212.671 12.4 217.411 12.4C221.851 12.4 225.211 13.81 227.491 16.63C229.771 19.45 230.911 23.32 230.911 28.24V79H215.161V29.23C215.161 27.79 214.831 26.62 214.171 25.72C213.511 24.82 212.551 24.37 211.291 24.37C210.211 24.37 209.341 24.85 208.681 25.81C208.081 26.71 207.781 27.82 207.781 29.14V79H191.581V1.24ZM255.47 79.72C248.69 79.72 243.83 77.86 240.89 74.14C237.95 70.42 236.48 64.87 236.48 57.49V31.03C236.48 24.97 238.22 20.35 241.7 17.17C245.18 13.99 250.04 12.4 256.28 12.4C268.94 12.4 275.27 18.61 275.27 31.03V35.8C275.27 40.6 275.21 44.5 275.09 47.5H252.23V60.28C252.23 62.56 252.47 64.36 252.95 65.68C253.43 66.94 254.45 67.57 256.01 67.57C257.21 67.57 258.05 67.21 258.53 66.49C259.07 65.77 259.37 64.96 259.43 64.06C259.55 63.1 259.61 61.72 259.61 59.92V53.53H275.27V57.31C275.27 64.99 273.77 70.66 270.77 74.32C267.83 77.92 262.73 79.72 255.47 79.72ZM259.61 39.67V31.21C259.61 26.47 258.44 24.1 256.1 24.1C253.46 24.1 252.14 26.47 252.14 31.21V39.67H259.61ZM299.415 79.72C292.635 79.72 287.775 77.86 284.835 74.14C281.895 70.42 280.425 64.87 280.425 57.49V31.03C280.425 24.97 282.165 20.35 285.645 17.17C289.125 13.99 293.985 12.4 300.225 12.4C312.885 12.4 319.215 18.61 319.215 31.03V35.8C319.215 40.6 319.155 44.5 319.035 47.5H296.175V60.28C296.175 62.56 296.415 64.36 296.895 65.68C297.375 66.94 298.395 67.57 299.955 67.57C301.155 67.57 301.995 67.21 302.475 66.49C303.015 65.77 303.315 64.96 303.375 64.06C303.495 63.1 303.555 61.72 303.555 59.92V53.53H319.215V57.31C319.215 64.99 317.715 70.66 314.715 74.32C311.775 77.92 306.675 79.72 299.415 79.72ZM303.555 39.67V31.21C303.555 26.47 302.385 24.1 300.045 24.1C297.405 24.1 296.085 26.47 296.085 31.21V39.67H303.555ZM324.911 13.12H340.661V20.41C341.441 17.83 342.791 15.85 344.711 14.47C346.691 13.03 349.121 12.31 352.001 12.31V25.45C349.781 25.45 347.321 25.78 344.621 26.44C341.981 27.04 340.661 27.76 340.661 28.6V79H324.911V13.12ZM373.938 79.72C360.918 79.72 354.408 73.12 354.408 59.92L354.498 54.7H370.248L370.338 62.44C370.338 64 370.638 65.2 371.238 66.04C371.838 66.82 372.828 67.21 374.208 67.21C376.308 67.21 377.358 65.5 377.358 62.08C377.358 59.56 376.848 57.58 375.828 56.14C374.868 54.7 373.308 53.17 371.148 51.55L362.778 45.07C359.898 42.85 357.828 40.57 356.568 38.23C355.308 35.83 354.678 32.47 354.678 28.15C354.678 24.79 355.548 21.94 357.288 19.6C359.088 17.2 361.458 15.4 364.398 14.2C367.338 13 370.608 12.4 374.208 12.4C386.988 12.4 393.378 18.76 393.378 31.48V32.74H377.088V30.22C377.088 28.66 376.818 27.34 376.278 26.26C375.798 25.12 374.958 24.55 373.758 24.55C372.678 24.55 371.838 24.88 371.238 25.54C370.698 26.14 370.428 26.98 370.428 28.06C370.428 30.46 371.358 32.32 373.218 33.64L382.938 40.75C386.418 43.33 389.088 46.15 390.948 49.21C392.808 52.21 393.738 56.02 393.738 60.64C393.738 66.76 391.998 71.47 388.518 74.77C385.038 78.07 380.178 79.72 373.938 79.72Z" fill="#FF6700"/>
</svg>
