<svg width="40" height="40" viewBox="0 0 40 40" fill="none" xmlns="http://www.w3.org/2000/svg">
<path d="M35 10.4594C33.8963 10.9614 32.7099 11.3006 31.4651 11.4531C32.7357 10.6721 33.7118 9.43528 34.1712 7.96144C32.9819 8.68482 31.6647 9.20994 30.2627 9.49295C29.1401 8.2663 27.5405 7.5 25.7702 7.5C22.3712 7.5 19.6152 10.3257 19.6152 13.8111C19.6152 14.3058 19.6697 14.7875 19.7747 15.2494C14.6594 14.9862 10.1243 12.4735 7.08855 8.65513C6.55875 9.58724 6.25515 10.6713 6.25515 11.828C6.25515 14.0177 7.34175 15.9494 8.99325 17.0812C7.98435 17.0484 7.0353 16.7645 6.2055 16.2918C6.2048 16.3181 6.2048 16.3446 6.2048 16.3712C6.2048 19.429 8.32641 21.9796 11.1421 22.5598C10.6256 22.7041 10.0819 22.7812 9.52056 22.7812C9.12396 22.7812 8.73846 22.7415 8.36256 22.668C9.14586 25.1753 11.4188 27 14.1122 27.0507C12.0058 28.7436 9.35196 29.7526 6.4682 29.7526C5.9714 29.7526 5.4815 29.7226 5 29.6643C7.72385 31.4552 10.9591 32.5 14.4349 32.5C25.7558 32.5 31.9468 22.8831 31.9468 14.5428C31.9468 14.2692 31.9408 13.9971 31.9289 13.7262C33.1313 12.8365 34.1747 11.7251 34.9999 10.4594H35Z" fill="white"/>
</svg>
